<svg width="1200" height="900" viewBox="0 0 1200 900" fill="none" xmlns="http://www.w3.org/2000/svg">
  <rect width="1200" height="900" rx="40" fill="#08111E"/>
  <rect width="1200" height="900" rx="40" fill="url(#paint0_radial)"/>
  <rect x="58" y="58" width="1084" height="784" rx="32" stroke="rgba(255,255,255,0.12)" stroke-width="2"/>
  <circle cx="916" cy="168" r="150" fill="url(#paint1_radial)" fill-opacity="0.9"/>
  <circle cx="266" cy="698" r="212" fill="url(#paint2_radial)" fill-opacity="0.45"/>
  <path d="M189 606C337 480.955 474.251 423.314 601 433.078C718.424 442.124 832.757 508.661 944 632" stroke="url(#paint3_linear)" stroke-width="16" stroke-linecap="round"/>
  <path d="M700 300L777 258L859 296L939 222" stroke="#62E7FF" stroke-width="14" stroke-linecap="round" stroke-linejoin="round"/>
  <circle cx="699" cy="300" r="14" fill="#62E7FF"/>
  <circle cx="777" cy="258" r="14" fill="#62E7FF"/>
  <circle cx="859" cy="296" r="14" fill="#62E7FF"/>
  <circle cx="939" cy="222" r="14" fill="#62E7FF"/>
  <text x="112" y="176" fill="#F5F7FF" font-family="Inter, Arial, sans-serif" font-size="34" letter-spacing="8">HEADWAY TRAVEL FIRM</text>
  <text x="112" y="278" fill="#FFFFFF" font-family="Space Grotesk, Inter, Arial, sans-serif" font-size="96" font-weight="700">Global mobility.</text>
  <text x="112" y="372" fill="#FFFFFF" font-family="Space Grotesk, Inter, Arial, sans-serif" font-size="96" font-weight="700">Structured delivery.</text>
  <text x="112" y="468" fill="#95A4B8" font-family="Inter, Arial, sans-serif" font-size="34">Education and travel consultancy for international placements, planning,</text>
  <text x="112" y="516" fill="#95A4B8" font-family="Inter, Arial, sans-serif" font-size="34">and client journeys built with clarity, trust, and execution.</text>
  <defs>
    <radialGradient id="paint0_radial" cx="0" cy="0" r="1" gradientUnits="userSpaceOnUse" gradientTransform="translate(936 122) rotate(132.778) scale(956.138 1186.49)">
      <stop stop-color="#173B7A"/>
      <stop offset="0.52" stop-color="#091525"/>
      <stop offset="1" stop-color="#05070D"/>
    </radialGradient>
    <radialGradient id="paint1_radial" cx="0" cy="0" r="1" gradientUnits="userSpaceOnUse" gradientTransform="translate(916 168) rotate(90) scale(150)">
      <stop stop-color="#62E7FF"/>
      <stop offset="1" stop-color="#62E7FF" stop-opacity="0"/>
    </radialGradient>
    <radialGradient id="paint2_radial" cx="0" cy="0" r="1" gradientUnits="userSpaceOnUse" gradientTransform="translate(266 698) rotate(90) scale(212)">
      <stop stop-color="#6D5EFC"/>
      <stop offset="1" stop-color="#6D5EFC" stop-opacity="0"/>
    </radialGradient>
    <linearGradient id="paint3_linear" x1="189" y1="532" x2="944" y2="532" gradientUnits="userSpaceOnUse">
      <stop stop-color="#4B8DFF"/>
      <stop offset="1" stop-color="#62E7FF"/>
    </linearGradient>
  </defs>
</svg>
